<svg width="3754" height="619" viewBox="0 0 3754 619" fill="none" xmlns="http://www.w3.org/2000/svg">
<path d="M1022.41 0L937.985 102.995L1133.61 516.005H955.489L861.793 619H1182.01H1206.72H1315.86L1022.41 0Z" fill="#18208A"/>
<path d="M953.429 316.195C953.429 154.493 825.756 22.6589 667.195 14.4193H651.75H636.306H478.774L595.121 144.193H651.75C746.476 144.193 822.668 221.439 822.668 316.195C822.668 410.95 745.446 488.196 650.721 488.196H635.276H597.18L478.774 619H668.224C826.786 609.73 953.429 477.897 953.429 316.195Z" fill="#18208A"/>
<path d="M1625.77 18.5391C1604.15 6.1797 1579.44 0 1553.7 0C1528.99 0 1505.31 6.1797 1483.68 18.5391C1462.06 30.8985 1444.56 48.4077 1432.2 70.0366C1419.85 91.6656 1413.67 115.354 1413.67 141.103C1413.67 166.852 1419.85 190.541 1432.2 212.17C1444.56 233.799 1462.06 251.308 1483.68 263.667C1505.31 276.027 1530.02 282.206 1554.73 282.206C1580.47 282.206 1604.15 276.027 1625.77 263.667C1647.39 251.308 1664.9 233.799 1677.25 212.17C1689.61 190.541 1695.79 166.852 1695.79 141.103C1695.79 115.354 1689.61 91.6656 1677.25 70.0366C1665.93 48.4077 1648.42 30.8985 1625.77 18.5391ZM1659.75 142.133C1659.75 172.002 1649.45 197.75 1628.86 217.319C1608.27 236.889 1583.56 247.188 1554.73 247.188C1526.93 247.188 1502.22 236.889 1481.63 216.29C1461.03 195.691 1450.74 170.972 1450.74 141.103C1450.74 112.265 1461.03 86.5158 1480.6 65.9168C1500.16 45.3178 1524.87 35.0183 1554.73 35.0183C1583.56 35.0183 1608.27 45.3178 1628.86 65.9168C1649.45 86.5158 1659.75 112.265 1659.75 142.133Z" fill="#18208A"/>
<path d="M1857.44 69.0067C1830.67 69.0067 1806.99 79.3062 1787.42 99.9052V74.1564H1752.42V345.033H1787.42V250.278C1808.02 270.877 1831.7 282.206 1858.47 282.206C1887.3 282.206 1912.01 271.907 1931.57 250.278C1952.16 229.679 1961.43 203.93 1961.43 175.092C1961.43 146.253 1951.13 120.504 1930.54 99.9052C1910.98 79.3062 1886.27 69.0067 1857.44 69.0067ZM1927.45 176.121C1927.45 196.72 1920.24 213.2 1906.86 227.619C1892.44 242.038 1875.97 249.248 1857.44 249.248C1837.87 249.248 1820.37 242.038 1806.99 228.649C1793.6 215.26 1786.39 196.72 1786.39 176.121C1786.39 155.522 1793.6 138.013 1806.99 123.594C1820.37 109.175 1837.87 102.995 1857.44 102.995C1877 102.995 1894.5 110.205 1907.89 124.624C1921.27 138.013 1927.45 155.522 1927.45 176.121Z" fill="#18208A"/>
<path d="M2215.75 180.241C2214.72 146.253 2204.42 118.444 2184.86 98.8752C2165.29 79.3062 2140.58 69.0067 2111.75 69.0067C2082.92 69.0067 2058.21 79.3062 2037.62 100.935C2018.06 121.534 2007.76 147.283 2007.76 176.121C2007.76 204.96 2018.06 230.709 2037.62 251.308C2057.18 271.907 2082.92 282.206 2112.78 282.206C2134.41 282.206 2153.97 277.057 2169.41 266.757C2184.86 256.458 2199.27 241.008 2210.6 219.379L2211.63 217.319L2181.77 201.87L2180.74 203.93C2164.26 233.799 2141.61 249.248 2110.72 249.248C2093.22 249.248 2077.78 243.068 2064.39 230.709C2052.04 218.349 2044.83 202.9 2043.8 183.331H2215.75V180.241ZM2047.92 151.403C2059.24 118.444 2079.84 102.995 2111.75 102.995C2127.2 102.995 2141.61 107.115 2153.97 116.384C2165.29 124.624 2172.5 135.953 2176.62 151.403H2047.92Z" fill="#18208A"/>
<path d="M2410.34 80.3361C2397.99 73.1265 2384.6 69.0067 2370.19 69.0067C2344.45 69.0067 2322.83 79.3062 2303.26 99.9052V74.1564H2268.26V276.027H2303.26V200.84C2303.26 175.092 2304.29 157.582 2306.35 149.343C2308.41 141.103 2312.53 132.864 2318.71 125.654C2324.89 118.444 2331.06 112.265 2339.3 108.145C2347.54 104.025 2355.77 101.965 2364.01 101.965C2372.25 101.965 2379.46 102.995 2385.63 106.085C2391.81 108.145 2395.93 112.265 2400.05 117.414C2404.17 122.564 2406.23 128.744 2408.28 135.953C2410.34 143.163 2411.37 158.612 2411.37 179.211V276.027H2446.38V172.002C2446.38 145.223 2443.29 124.624 2437.11 111.235C2431.97 98.8752 2422.7 87.5458 2410.34 80.3361Z" fill="#18208A"/>
<path d="M2699.67 42.228C2687.31 29.8686 2671.87 20.599 2653.33 15.4493C2635.83 9.26956 2608.03 7.20966 2569.94 7.20966H2511.25V276.027H2598.76C2634.8 276.027 2661.57 269.847 2681.13 258.517C2699.67 247.188 2714.08 230.709 2724.38 211.14C2734.67 190.541 2739.82 168.912 2739.82 146.253C2739.82 123.594 2736.73 102.995 2729.53 86.5158C2722.32 69.0067 2712.02 54.5874 2699.67 42.228ZM2702.76 143.163C2702.76 159.642 2699.67 174.062 2694.52 186.421C2689.37 198.78 2681.13 209.08 2671.87 218.349C2661.57 226.589 2650.25 232.769 2636.86 235.859C2623.48 238.948 2600.82 241.008 2570.96 241.008H2546.25V42.228H2559.64C2588.47 42.228 2612.15 43.2579 2627.59 46.3478C2643.04 49.4376 2656.42 55.6173 2667.75 63.8569C2679.08 72.0965 2688.34 84.4559 2694.52 97.8453C2699.67 112.265 2702.76 127.714 2702.76 143.163Z" fill="#18208A"/>
<path d="M2996.2 180.241C2995.17 146.253 2984.87 118.444 2965.31 98.8752C2945.75 79.3062 2921.04 69.0067 2892.21 69.0067C2863.38 69.0067 2838.67 79.3062 2818.07 100.935C2798.51 121.534 2788.21 147.283 2788.21 176.121C2788.21 204.96 2798.51 230.709 2818.07 251.308C2837.64 271.907 2863.38 282.206 2893.24 282.206C2914.86 282.206 2934.42 277.057 2949.87 266.757C2965.31 256.458 2979.72 241.008 2991.05 219.379L2992.08 217.319L2962.22 201.87L2961.19 203.93C2944.72 233.799 2922.07 249.248 2891.18 249.248C2873.67 249.248 2858.23 243.068 2844.84 230.709C2832.49 218.349 2825.28 202.9 2824.25 183.331H2996.2V180.241ZM2828.37 151.403C2839.7 118.444 2860.29 102.995 2892.21 102.995C2907.65 102.995 2922.07 107.115 2934.42 116.384C2945.75 124.624 2952.95 135.953 2957.07 151.403H2828.37Z" fill="#18208A"/>
<path d="M3100.19 101.965C3111.52 101.965 3123.87 108.145 3137.26 121.534L3139.32 123.594L3161.97 99.9052L3159.91 97.8453C3140.35 78.2762 3120.78 69.0067 3103.28 69.0067C3085.78 69.0067 3071.36 74.1564 3060.04 84.4559C3048.71 94.7554 3043.56 108.145 3043.56 122.564C3043.56 136.983 3047.68 149.343 3054.89 158.612C3062.09 167.882 3073.42 176.121 3087.83 183.331C3102.25 190.541 3111.52 196.72 3117.69 201.87C3122.84 207.02 3125.93 213.2 3125.93 220.409C3125.93 227.619 3122.84 233.799 3116.66 239.978C3110.49 245.128 3103.28 248.218 3095.04 248.218C3082.69 248.218 3069.3 241.008 3056.95 226.589L3054.89 224.529L3032.24 249.248L3033.27 251.308C3049.74 271.907 3070.33 282.206 3095.04 282.206C3112.55 282.206 3127.99 276.027 3140.35 263.667C3152.7 251.308 3158.88 236.889 3158.88 219.379C3158.88 205.99 3154.76 193.631 3146.52 184.361C3138.29 175.092 3126.96 166.852 3112.55 158.612C3098.13 151.403 3088.86 145.223 3082.69 140.073C3077.54 134.923 3075.48 129.774 3075.48 123.594C3075.48 117.414 3077.54 112.265 3082.69 108.145C3087.83 104.025 3094.01 101.965 3100.19 101.965Z" fill="#18208A"/>
<path d="M3246.4 74.1564H3211.39V276.027H3246.4V74.1564Z" fill="#18208A"/>
<path d="M3228.89 0C3221.69 0 3215.51 2.0599 3211.39 7.20965C3206.24 12.3594 3204.18 18.5391 3204.18 24.7188C3204.18 31.9285 3206.24 37.0782 3211.39 42.228C3216.54 47.3777 3222.72 49.4376 3229.92 49.4376C3237.13 49.4376 3243.31 47.3777 3248.46 42.228C3253.6 37.0782 3255.66 30.8985 3255.66 23.6889C3255.66 16.4792 3253.6 10.2995 3248.46 5.14975C3242.28 2.0599 3236.1 0 3228.89 0Z" fill="#18208A"/>
<path d="M3476 98.8752C3455.41 79.3062 3432.76 69.0067 3405.99 69.0067C3377.16 69.0067 3352.45 79.3062 3331.86 98.8752C3311.26 118.444 3300.97 143.163 3300.97 172.002C3300.97 198.78 3310.23 222.469 3329.8 243.068C3349.36 262.637 3374.07 272.937 3402.9 272.937C3417.31 272.937 3431.73 269.847 3445.11 264.697C3456.44 259.547 3466.74 253.368 3474.97 245.128C3474.97 262.637 3471.88 274.997 3467.77 283.236C3463.65 292.506 3455.41 299.716 3444.08 304.865C3432.76 310.015 3419.37 313.105 3404.96 313.105C3374.07 313.105 3351.42 300.745 3338.03 277.057L3337 276.027H3299.94L3300.97 279.117C3318.47 323.404 3353.48 346.063 3405.99 346.063C3421.43 346.063 3435.85 344.003 3448.2 338.854C3461.59 334.734 3471.88 327.524 3481.15 318.255C3490.42 308.985 3497.62 298.686 3501.74 285.296C3505.86 272.937 3508.95 253.368 3508.95 226.589V74.1564H3473.94V98.8752H3476ZM3457.47 122.564C3470.85 135.953 3477.03 152.433 3477.03 172.002C3477.03 191.571 3470.85 208.05 3457.47 220.409C3444.08 232.769 3427.61 238.948 3407.02 238.948C3386.42 238.948 3368.92 232.769 3356.57 219.379C3344.21 205.99 3337 190.541 3337 172.002C3337 153.463 3344.21 136.983 3357.6 123.594C3370.98 109.175 3388.48 102.995 3409.08 102.995C3427.61 102.995 3444.08 109.175 3457.47 122.564Z" fill="#18208A"/>
<path d="M3742.67 111.235C3736.5 97.8453 3727.23 87.5458 3715.9 79.3062C3703.55 72.0965 3690.16 67.9767 3675.75 67.9767C3650.01 67.9767 3628.39 78.2762 3608.82 98.8752V74.1564H3573.82V276.027H3608.82V200.84C3608.82 175.092 3609.85 157.582 3611.91 149.343C3613.97 141.103 3618.09 132.864 3624.27 125.654C3630.45 118.444 3636.62 112.265 3644.86 108.145C3653.1 104.025 3661.33 101.965 3669.57 101.965C3677.81 101.965 3685.02 102.995 3691.19 106.085C3697.37 108.145 3701.49 112.265 3705.61 117.414C3709.73 122.564 3711.79 128.744 3713.84 135.953C3715.9 143.163 3716.93 158.612 3716.93 179.211V276.027H3751.94V172.002C3751.94 145.223 3748.85 124.624 3742.67 111.235Z" fill="#18208A"/>
<path d="M1535.17 489.226C1521.78 475.837 1506.34 468.627 1487.8 468.627C1467.21 468.627 1449.71 475.837 1435.29 490.256C1420.88 504.676 1413.67 522.185 1413.67 542.784C1413.67 563.383 1420.88 580.892 1435.29 595.311C1449.71 609.73 1467.21 617.97 1486.77 617.97C1505.31 617.97 1520.75 610.76 1535.17 597.371V613.85H1560.91V472.747H1535.17V489.226ZM1522.81 508.795C1532.08 518.065 1537.22 530.424 1537.22 544.844C1537.22 559.263 1532.08 570.592 1522.81 579.862C1513.54 589.131 1502.22 594.281 1488.83 594.281C1475.45 594.281 1464.12 589.131 1454.86 579.862C1445.59 569.562 1440.44 558.233 1440.44 544.844C1440.44 531.454 1445.59 520.125 1454.86 509.825C1464.12 499.526 1475.45 495.406 1488.83 495.406C1502.22 494.376 1512.51 499.526 1522.81 508.795Z" fill="#FE360B"/>
<path d="M1812.13 421.25H1786.39V613.85H1812.13V421.25Z" fill="#FE360B"/>
<path d="M2061.3 421.25H2035.56V613.85H2061.3V421.25Z" fill="#FE360B"/>
<path d="M2309.44 472.747H2283.7V613.85H2309.44V472.747Z" fill="#FE360B"/>
<path d="M2296.06 416.1C2290.91 416.1 2286.79 418.16 2282.67 421.25C2279.58 425.369 2277.52 429.489 2277.52 434.639C2277.52 439.789 2279.58 443.909 2282.67 448.028C2285.76 452.148 2290.91 453.178 2296.06 453.178C2301.2 453.178 2305.32 451.118 2309.44 448.028C2312.53 444.938 2314.59 439.789 2314.59 434.639C2314.59 429.489 2312.53 425.369 2309.44 421.25C2306.35 417.13 2301.2 416.1 2296.06 416.1Z" fill="#FE360B"/>
<path d="M2650.25 489.226C2636.86 475.837 2621.42 468.627 2602.88 468.627C2582.29 468.627 2564.79 475.837 2550.37 490.256C2535.96 504.676 2528.75 522.185 2528.75 542.784C2528.75 563.383 2535.96 580.892 2550.37 595.311C2564.79 609.73 2582.29 617.97 2601.85 617.97C2620.39 617.97 2635.83 610.76 2650.25 597.371V613.85H2675.99V472.747H2650.25V489.226ZM2636.86 508.795C2646.13 518.065 2651.28 530.424 2651.28 544.844C2651.28 559.263 2646.13 570.592 2636.86 579.862C2627.59 589.131 2616.27 594.281 2602.88 594.281C2589.5 594.281 2578.17 589.131 2568.91 579.862C2559.64 569.562 2554.49 558.233 2554.49 544.844C2554.49 531.454 2559.64 520.125 2568.91 509.825C2578.17 499.526 2589.5 495.406 2602.88 495.406C2616.27 494.376 2627.59 499.526 2636.86 508.795Z" fill="#FE360B"/>
<path d="M3003.41 477.897C2995.17 472.747 2985.9 469.657 2975.61 469.657C2958.1 469.657 2943.69 475.837 2930.3 489.226V472.747H2903.53V613.85H2929.27V560.293C2929.27 542.784 2930.3 530.424 2931.33 525.275C2932.36 520.125 2935.45 513.945 2939.57 508.795C2943.69 503.646 2947.81 499.526 2953.98 497.466C2965.31 492.316 2977.67 492.316 2984.87 495.406C2988.99 497.466 2992.08 499.526 2994.14 502.616C2996.2 505.705 2998.26 510.855 3000.32 514.975C3001.35 520.125 3002.38 530.424 3002.38 544.844V612.82H3028.12V540.724C3028.12 522.185 3026.06 507.765 3021.94 498.496C3017.82 490.256 3011.64 483.047 3003.41 477.897Z" fill="#FE360B"/>
<path d="M3372.01 571.622C3359.66 587.072 3344.21 594.281 3325.68 594.281C3310.23 594.281 3297.88 589.131 3288.61 578.832C3279.34 568.532 3274.2 557.203 3274.2 542.784C3274.2 528.364 3279.34 517.035 3288.61 507.765C3298.91 498.496 3311.26 493.346 3325.68 493.346C3344.21 493.346 3359.66 500.556 3370.98 516.005L3372.01 518.065L3392.6 505.705L3391.57 503.646C3385.4 492.316 3376.13 484.077 3363.77 477.897C3352.45 471.717 3339.06 468.627 3325.68 468.627C3303.03 468.627 3283.46 475.837 3269.05 490.256C3254.63 504.676 3247.43 523.215 3247.43 543.814C3247.43 564.413 3254.63 581.922 3269.05 596.341C3283.46 610.76 3302 617.97 3323.62 617.97C3337 617.97 3350.39 614.88 3362.74 609.73C3375.1 604.581 3384.37 595.311 3391.57 585.012L3392.6 582.952L3372.01 569.562V571.622Z" fill="#FE360B"/>
<path d="M3728.26 563.383C3726.2 567.503 3724.14 570.592 3721.05 573.682C3710.76 587.072 3697.37 594.281 3679.87 594.281C3667.51 594.281 3657.22 590.161 3648.98 581.922C3640.74 573.682 3635.59 563.383 3634.56 549.993H3754V546.904C3752.97 523.215 3745.76 503.646 3732.38 490.256C3718.99 476.867 3701.49 469.657 3680.9 469.657C3660.3 469.657 3642.8 476.867 3629.42 491.286C3616.03 505.706 3608.82 523.215 3608.82 543.814C3608.82 564.413 3616.03 581.922 3629.42 596.341C3642.8 610.76 3661.33 617.97 3681.93 617.97C3697.37 617.97 3710.76 613.85 3721.05 607.671C3732.38 600.461 3741.64 589.131 3749.88 574.712L3750.91 572.652L3729.29 561.323L3728.26 563.383ZM3638.68 526.304C3645.89 504.676 3660.3 494.376 3681.93 494.376C3693.25 494.376 3702.52 497.466 3710.76 503.646C3717.96 508.795 3723.11 517.035 3726.2 526.304H3638.68Z" fill="#FE360B"/>
<path d="M300.65 14.4193C174.006 14.4193 66.9254 91.6655 20.5924 200.84H172.976C204.895 165.822 249.168 144.193 299.62 144.193C335.657 144.193 368.605 155.522 395.375 174.062C441.708 204.96 471.567 257.488 471.567 316.195C471.567 375.932 441.708 428.459 395.375 458.328C367.575 476.867 334.627 488.196 299.62 488.196C242.991 488.196 192.539 460.388 160.621 417.13H15.4443C56.6292 534.544 168.858 617.97 299.62 617.97C466.419 617.97 601.299 482.017 601.299 316.195C602.329 150.373 466.419 14.4193 300.65 14.4193Z" fill="#18208A"/>
<path d="M8.23697 238.948C4.11849 253.368 2.05924 267.787 0 283.236V292.506H131.792C134.88 273.967 140.029 255.428 148.265 238.948H8.23697Z" fill="#FE360B"/>
<path d="M0 326.494V349.153C1.02962 359.453 3.08886 369.752 5.14811 380.052H142.088C135.91 363.572 131.792 346.063 130.762 327.524H0V326.494Z" fill="#FE360B"/>
</svg>
